<svg xmlns="http://www.w3.org/2000/svg" viewBox="0 0 407.96 409.36"><title>Asset 1</title><g id="Layer_2" data-name="Layer 2"><g id="Layer_1-2" data-name="Layer 1"><path d="M0,0V409.36l408,0V0ZM230.94,17.5a114.88,114.88,0,0,0-22.06,18H17.5v-18ZM292.5,230.73v-.22l.83,0a63.52,63.52,0,1,1-4.44.17C290.08,230.7,291.28,230.73,292.5,230.73ZM243.24,357.14H211.18A114.52,114.52,0,0,0,223,333.46,81.24,81.24,0,0,0,243.24,357.14ZM222.57,254.83a115.28,115.28,0,0,0-27.52-42.42V176.83A114.52,114.52,0,0,0,245,220.17a80.53,80.53,0,0,0,8.28,3.5A81.48,81.48,0,0,0,222.57,254.83Zm-9.91,34.36c-.08,1.53-.14,3.06-.14,4.61s.06,3.18.16,4.76a97.79,97.79,0,0,1-43.17,76.62,96.74,96.74,0,0,1-49.68,16.68h-9.94a98.06,98.06,0,0,1-92.39-91V287.2a97.91,97.91,0,0,1,88.8-90.53c1.37-.12,2.74-.22,4.13-.28l.45,0c.36,0,.72,0,1.07,0h2.91v-.06H115c2.93,0,5.83.14,8.69.39V53h18.17V200a97.28,97.28,0,0,1,17.5,6.91V53h18.17v51.47a113.79,113.79,0,0,0,0,20.8v93.63A97.6,97.6,0,0,1,212.66,289.19ZM17.5,53h88.71v18.3H17.5Zm0,35.8h88.71v17.8H17.5Zm0,35.3h88.71v18.6H17.5Zm0,36.1h88.71v18.6H17.5ZM195.05,53h.14c-.05.08-.1.15-.14.23ZM17.5,196.34H55.41A115.25,115.25,0,0,0,17.5,233.69Zm0,195.52V355.51a115.59,115.59,0,0,0,36.27,36.35Zm373,0H353.71a116.29,116.29,0,0,0,36.75-36.75Zm-34-276.6a63.6,63.6,0,1,1-63.74-63h6.5A63.39,63.39,0,0,1,356.44,115.24Zm13.05-26.4h21v17.8h-17A80.44,80.44,0,0,0,369.49,88.84Zm3.95,35.3h17v18.6H369.12A80.38,80.38,0,0,0,373.44,124.14Zm-13.22,36.1h30.24v18.6H342.9A81.46,81.46,0,0,0,360.22,160.24Zm30.24,36.1v36.77a116.31,116.31,0,0,0-36.77-36.77Zm0-125H360.93a81.75,81.75,0,0,0-17.29-19.11h46.82Zm0-36.61H299.8c-2.2-.18-4.42-.29-6.67-.29a81,81,0,1,0-.43,161.91h0A97.75,97.75,0,0,1,294,391.84H194.35v0H176a115.16,115.16,0,0,0,21.33-17.32h93.43c.87,0,1.74.07,2.61.07a80.81,80.81,0,0,0,0-161.62c-1.59,0-3.18.06-4.75.15a95.89,95.89,0,0,1-35.79-8.62l-.46-.23A97.11,97.11,0,0,1,201,149.88a98.09,98.09,0,0,1-5.91-24.75v-20.2A98,98,0,0,1,286.22,17.5H390.46Z"/><circle cx="114.72" cy="292.84" r="8.75"/><path d="M115,212a80.81,80.81,0,1,0,80.81,80.81A80.9,80.9,0,0,0,115,212Zm0,144.12a63.31,63.31,0,1,1,63.31-63.31A63.38,63.38,0,0,1,115,356.15Z"/><path d="M115,247.73a45.11,45.11,0,1,0,45.11,45.11A45.17,45.17,0,0,0,115,247.73Zm0,72.72a27.61,27.61,0,1,1,27.61-27.61A27.65,27.65,0,0,1,115,320.45Z"/><circle cx="293.37" cy="294.11" r="8.75"/><path d="M293.13,338.91A45.11,45.11,0,1,0,248,293.8,45.16,45.16,0,0,0,293.13,338.91Zm0-72.72a27.61,27.61,0,1,1-27.6,27.61A27.64,27.64,0,0,1,293.13,266.19Z"/><circle cx="293.37" cy="115.85" r="8.75"/><path d="M248,115.54a45.11,45.11,0,1,0,45.1-45.1A45.16,45.16,0,0,0,248,115.54Zm45.1-27.6a27.61,27.61,0,1,1-27.6,27.6A27.63,27.63,0,0,1,293.13,87.94Z"/></g></g></svg>